<?xml version="1.0" encoding="UTF-8"?>
<svg width="800px" height="200px" viewBox="0 0 800 200" version="1.1" xmlns="http://www.w3.org/2000/svg">
    <!-- Feature Icons -->
    
    <!-- AI Icon -->
    <g transform="translate(100, 100)">
        <circle cx="0" cy="0" r="60" fill="#3498db" opacity="0.2"/>
        <path d="M-30 -30 
                 L 30 -30 
                 L 30 30 
                 L -30 30 Z" 
              fill="none" 
              stroke="#3498db" 
              stroke-width="3"/>
        <circle cx="0" cy="0" r="15" fill="#3498db"/>
        <line x1="-30" y1="-15" x2="30" y2="-15" stroke="#3498db" stroke-width="3"/>
        <line x1="-30" y1="15" x2="30" y2="15" stroke="#3498db" stroke-width="3"/>
    </g>
    
    <!-- Analysis Icon -->
    <g transform="translate(400, 100)">
        <circle cx="0" cy="0" r="60" fill="#2ecc71" opacity="0.2"/>
        <path d="M-30 30 
                 L -15 0 
                 L 0 15 
                 L 15 -15 
                 L 30 -30" 
              fill="none" 
              stroke="#2ecc71" 
              stroke-width="3"/>
        <circle cx="-30" cy="30" r="4" fill="#2ecc71"/>
        <circle cx="-15" cy="0" r="4" fill="#2ecc71"/>
        <circle cx="0" cy="15" r="4" fill="#2ecc71"/>
        <circle cx="15" cy="-15" r="4" fill="#2ecc71"/>
        <circle cx="30" cy="-30" r="4" fill="#2ecc71"/>
    </g>
    
    <!-- Security Icon -->
    <g transform="translate(700, 100)">
        <circle cx="0" cy="0" r="60" fill="#e74c3c" opacity="0.2"/>
        <path d="M-30 -30 
                 C -30 -30, 0 -60, 30 -30
                 L 30 15
                 C 30 30, 0 45, -30 15 Z" 
              fill="none" 
              stroke="#e74c3c" 
              stroke-width="3"/>
        <circle cx="0" cy="0" r="10" fill="#e74c3c"/>
        <path d="M-5 0 L 5 0 M0 -5 L 0 5" 
              stroke="#ffffff" 
              stroke-width="2"/>
    </g>
</svg>
