<?xml version="1.0" encoding="UTF-8"?>
<svg width="800px" height="600px" viewBox="0 0 800 600" version="1.1" xmlns="http://www.w3.org/2000/svg">
    <!-- Medical themed illustration -->
    <!-- Background Circle -->
    <circle cx="400" cy="300" r="250" fill="#ecf0f1" opacity="0.5"/>
    
    <!-- Heart Symbol -->
    <path d="M400 200 
             C 400 200, 350 150, 300 200
             C 250 250, 250 350, 400 400
             C 550 350, 550 250, 500 200
             C 450 150, 400 200, 400 200"
          fill="#e74c3c" stroke="none"/>
    
    <!-- Medical Cross -->
    <rect x="375" y="100" width="50" height="150" fill="#3498db"/>
    <rect x="325" y="150" width="150" height="50" fill="#3498db"/>
    
    <!-- Pulse Line -->
    <path d="M100 300 
             L 250 300 
             L 300 200 
             L 350 400 
             L 400 300 
             L 450 300 
             L 500 250 
             L 550 300 
             L 700 300"
          stroke="#2c3e50" 
          fill="none" 
          stroke-width="3"/>
          
    <!-- Medical Icons -->
    <circle cx="200" cy="400" r="30" fill="#2ecc71"/>
    <circle cx="600" cy="400" r="30" fill="#f1c40f"/>
    <circle cx="400" cy="500" r="30" fill="#9b59b6"/>
</svg>
