<?xml version="1.0" encoding="UTF-8"?>
<svg width="800" height="600" viewBox="0 0 800 600" fill="none" xmlns="http://www.w3.org/2000/svg">
    <!-- Background Elements -->
    <circle cx="400" cy="300" r="250" fill="#4CC9F0" fill-opacity="0.1"/>
    <circle cx="400" cy="300" r="200" fill="#7209B7" fill-opacity="0.1"/>
    
    <!-- Medical Cross Symbol -->
    <g transform="translate(350,250)">
        <rect x="-15" y="-40" width="30" height="80" rx="5" fill="#4361EE"/>
        <rect x="-40" y="-15" width="80" height="30" rx="5" fill="#4361EE"/>
    </g>
    
    <!-- Heart Rate Line -->
    <path d="M200 300 L250 300 L275 200 L300 400 L325 300 L350 300 L375 250 L400 350 L425 300 L450 300 L500 300" 
          stroke="#4361EE" stroke-width="4" fill="none"/>
    
    <!-- Circular Progress Indicators -->
    <circle cx="600" cy="200" r="30" stroke="#7209B7" stroke-width="6" fill="none"/>
    <circle cx="600" cy="200" r="30" stroke="#4CC9F0" stroke-width="6" fill="none" stroke-dasharray="188.4" stroke-dashoffset="94.2"/>
    
    <circle cx="200" cy="400" r="40" stroke="#7209B7" stroke-width="6" fill="none"/>
    <circle cx="200" cy="400" r="40" stroke="#4361EE" stroke-width="6" fill="none" stroke-dasharray="251.2" stroke-dashoffset="188.4"/>
    
    <!-- Decorative Elements -->
    <circle cx="150" cy="150" r="10" fill="#4CC9F0"/>
    <circle cx="650" cy="450" r="15" fill="#7209B7"/>
    <circle cx="400" cy="100" r="8" fill="#4361EE"/>
    <circle cx="400" cy="500" r="12" fill="#4CC9F0"/>
    
    <!-- Data Points -->
    <g transform="translate(500,400)">
        <circle cx="0" cy="0" r="5" fill="#4361EE"/>
        <circle cx="20" cy="-10" r="5" fill="#4361EE"/>
        <circle cx="40" cy="-30" r="5" fill="#4361EE"/>
        <circle cx="60" cy="-20" r="5" fill="#4361EE"/>
        <path d="M0 0 L20 -10 L40 -30 L60 -20" stroke="#4361EE" stroke-width="2"/>
    </g>
</svg>
